$MeshFormat
4.1 0 8
$EndMeshFormat
$PhysicalNames
7
1 9 "ball_bottom"
1 10 "top"
1 11 "bottom"
1 12 "right"
1 13 "left"
2 7 "plate"
2 14 "ball"
$EndPhysicalNames
$Entities
7 6 2 0
1 0 0 0 0 
2 12000 0 0 0 
3 12000 250 0 0 
4 0 250 0 0 
5 3000 3280 0 0 
6 6000 3280 0 0 
7 9000 3280 0 0 
1 -9.999985195463523e-08 -1e-07 -1e-07 12000.0000001 1e-07 1e-07 1 11 2 1 -2 
2 11999.9999999 -9.999999406318238e-08 -1e-07 12000.0000001 250.0000001 1e-07 1 12 2 2 -3 
3 -9.999985195463523e-08 249.9999999 -1e-07 12000.0000001 250.0000001 1e-07 1 10 2 3 -4 
4 -1e-07 -9.999999406318238e-08 -1e-07 1e-07 250.0000001 1e-07 1 13 2 4 -1 
6 2999.9999999 279.9999998999999 -1e-07 9000.000000100001 3280.0000001 1e-07 1 9 2 7 -5 
7 2999.9999999 3279.9999999 -1e-07 9000.000000100001 3280.0000001 1e-07 0 2 5 -7 
1 -9.999985195463523e-08 -9.999999406318238e-08 -1e-07 12000.0000001 250.0000001 1e-07 1 7 4 1 2 3 4 
2 2999.9999999 279.9999998999999 -1e-07 9000.000000100001 3280.0000001 1e-07 1 14 2 7 6 
$EndEntities
$Nodes
15 1096 1 1096
0 1 0 1
1
0 0 0
0 2 0 1
2
12000 0 0
0 3 0 1
3
12000 250 0
0 4 0 1
4
0 250 0
0 5 0 1
5
3000 3280 0
0 6 0 1
6
6000 3280 0
0 7 0 1
7
9000 3280 0
1 1 0 199
8
9
10
11
12
13
14
15
16
17
18
19
20
21
22
23
24
25
26
27
28
29
30
31
32
33
34
35
36
37
38
39
40
41
42
43
44
45
46
47
48
49
50
51
52
53
54
55
56
57
58
59
60
61
62
63
64
65
66
67
68
69
70
71
72
73
74
75
76
77
78
79
80
81
82
83
84
85
86
87
88
89
90
91
92
93
94
95
96
97
98
99
100
101
102
103
104
105
106
107
108
109
110
111
112
113
114
115
116
117
118
119
120
121
122
123
124
125
126
127
128
129
130
131
132
133
134
135
136
137
138
139
140
141
142
143
144
145
146
147
148
149
150
151
152
153
154
155
156
157
158
159
160
161
162
163
164
165
166
167
168
169
170
171
172
173
174
175
176
177
178
179
180
181
182
183
184
185
186
187
188
189
190
191
192
193
194
195
196
197
198
199
200
201
202
203
204
205
206
60 0 0
120 0 0
180 0 0
240 0 0
300 0 0
360 0 0
420.0000000000001 0 0
480 0 0
540 0 0
600 0 0
660 0 0
720 0 0
780 0 0
840.0000000000001 0 0
900 0 0
960 0 0
1020 0 0
1080 0 0
1140 0 0
1200 0 0
1260 0 0
1320 0 0
1380 0 0
1440 0 0
1500 0 0
1560 0 0
1620 0 0
1680 0 0
1740 0 0
1800 0 0
1860 0 0
1920 0 0
1980 0 0
2040 0 0
2100 0 0
2160 0 0
2220 0 0
2280 0 0
2340 0 0
2400 0 0
2460 0 0
2520 0 0
2580 0 0
2640 0 0
2700 0 0
2760 0 0
2820 0 0
2880 0 0
2940 0 0
3000 0 0
3060 0 0
3120 0 0
3180 0 0
3240 0 0
3300 0 0
3360 0 0
3420 0 0
3480 0 0
3540 0 0
3600 0 0
3660 0 0
3720 0 0
3780 0 0
3840 0 0
3900 0 0
3960 0 0
4020 0 0
4080 0 0
4140 0 0
4200 0 0
4260 0 0
4320 0 0
4380 0 0
4440 0 0
4500 0 0
4560 0 0
4620 0 0
4680 0 0
4740 0 0
4800 0 0
4860 0 0
4920 0 0
4980 0 0
5040 0 0
5100 0 0
5160 0 0
5220 0 0
5280 0 0
5340 0 0
5400 0 0
5460 0 0
5520 0 0
5580 0 0
5640 0 0
5700 0 0
5760 0 0
5820 0 0
5880 0 0
5940 0 0
6000 0 0
6060 0 0
6120 0 0
6180 0 0
6240 0 0
6300 0 0
6360 0 0
6420 0 0
6480 0 0
6540.000000000001 0 0
6600.000000000001 0 0
6660.000000000001 0 0
6720.000000000001 0 0
6780.000000000001 0 0
6840.000000000001 0 0
6900.000000000001 0 0
6959.999999999999 0 0
7020 0 0
7080 0 0
7140 0 0
7200 0 0
7260 0 0
7320 0 0
7380 0 0
7440 0 0
7500 0 0
7560 0 0
7620 0 0
7680 0 0
7740 0 0
7800 0 0
7860 0 0
7920 0 0
7980 0 0
8040.000000000001 0 0
8100.000000000001 0 0
8160.000000000001 0 0
8220 0 0
8280 0 0
8340 0 0
8400 0 0
8460 0 0
8520 0 0
8580 0 0
8640 0 0
8700 0 0
8760 0 0
8820 0 0
8880 0 0
8940 0 0
9000 0 0
9060 0 0
9120 0 0
9180 0 0
9240 0 0
9300 0 0
9360 0 0
9420 0 0
9480 0 0
9540 0 0
9600 0 0
9660 0 0
9720 0 0
9780 0 0
9840 0 0
9900 0 0
9960 0 0
10020 0 0
10080 0 0
10140 0 0
10200 0 0
10260 0 0
10320 0 0
10380 0 0
10440 0 0
10500 0 0
10560 0 0
10620 0 0
10680 0 0
10740 0 0
10800 0 0
10860 0 0
10920 0 0
10980 0 0
11040 0 0
11100 0 0
11160 0 0
11220 0 0
11280 0 0
11340 0 0
11400 0 0
11460 0 0
11520 0 0
11580 0 0
11640 0 0
11700 0 0
11760 0 0
11820 0 0
11880 0 0
11940 0 0
1 2 0 3
207
208
209
12000 62.5 0
12000 125 0
12000 187.5 0
1 3 0 199
210
211
212
213
214
215
216
217
218
219
220
221
222
223
224
225
226
227
228
229
230
231
232
233
234
235
236
237
238
239
240
241
242
243
244
245
246
247
248
249
250
251
252
253
254
255
256
257
258
259
260
261
262
263
264
265
266
267
268
269
270
271
272
273
274
275
276
277
278
279
280
281
282
283
284
285
286
287
288
289
290
291
292
293
294
295
296
297
298
299
300
301
302
303
304
305
306
307
308
309
310
311
312
313
314
315
316
317
318
319
320
321
322
323
324
325
326
327
328
329
330
331
332
333
334
335
336
337
338
339
340
341
342
343
344
345
346
347
348
349
350
351
352
353
354
355
356
357
358
359
360
361
362
363
364
365
366
367
368
369
370
371
372
373
374
375
376
377
378
379
380
381
382
383
384
385
386
387
388
389
390
391
392
393
394
395
396
397
398
399
400
401
402
403
404
405
406
407
408
11940 250 0
11880 250 0
11820 250 0
11760 250 0
11700 250 0
11640 250 0
11580 250 0
11520 250 0
11460 250 0
11400 250 0
11340 250 0
11280 250 0
11220 250 0
11160 250 0
11100 250 0
11040 250 0
10980 250 0
10920 250 0
10860 250 0
10800 250 0
10740 250 0
10680 250 0
10620 250 0
10560 250 0
10500 250 0
10440 250 0
10380 250 0
10320 250 0
10260 250 0
10200 250 0
10140 250 0
10080 250 0
10020 250 0
9960 250 0
9900 250 0
9840 250 0
9780 250 0
9720 250 0
9660 250 0
9600 250 0
9540 250 0
9480 250 0
9420 250 0
9360 250 0
9300 250 0
9240 250 0
9180 250 0
9120 250 0
9060 250 0
9000 250 0
8940 250 0
8880 250 0
8820 250 0
8760 250 0
8700 250 0
8640 250 0
8580 250 0
8520 250 0
8460 250 0
8400 250 0
8340 250 0
8280 250 0
8220 250 0
8160 250 0
8100 250 0
8040 250 0
7980 250 0
7920 250 0
7860 250 0
7800 250 0
7740 250 0
7680 250 0
7620 250 0
7560 250 0
7500 250 0
7440 250 0
7380 250 0
7320 250 0
7260 250 0
7200 250 0
7140 250 0
7080 250 0
7020 250 0
6960 250 0
6900 250 0
6840 250 0
6780 250 0
6720 250 0
6660 250 0
6600 250 0
6540 250 0
6480 250 0
6420 250 0
6360 250 0
6300 250 0
6240 250 0
6180 250 0
6120 250 0
6060 250 0
6000 250 0
5940 250 0
5880 250 0
5820 250 0
5760 250 0
5700 250 0
5640 250 0
5580 250 0
5520 250 0
5459.999999999999 250 0
5399.999999999999 250 0
5339.999999999999 250 0
5279.999999999999 250 0
5219.999999999999 250 0
5159.999999999999 250 0
5099.999999999999 250 0
5040.000000000001 250 0
4980 250 0
4920 250 0
4860 250 0
4800 250 0
4740 250 0
4680 250 0
4620 250 0
4560 250 0
4500 250 0
4440 250 0
4380 250 0
4320 250 0
4260 250 0
4200 250 0
4140 250 0
4080 250 0
4020 250 0
3959.999999999999 250 0
3899.999999999999 250 0
3839.999999999999 250 0
3780 250 0
3720 250 0
3660 250 0
3600 250 0
3540 250 0
3480 250 0
3420 250 0
3360 250 0
3300 250 0
3240 250 0
3180 250 0
3120 250 0
3060 250 0
3000 250 0
2940 250 0
2880 250 0
2820 250 0
2760 250 0
2700 250 0
2640 250 0
2580 250 0
2520 250 0
2460 250 0
2400 250 0
2340 250 0
2280 250 0
2220 250 0
2160 250 0
2100 250 0
2040 250 0
1980 250 0
1920 250 0
1860 250 0
1800 250 0
1740 250 0
1680 250 0
1620 250 0
1560 250 0
1500 250 0
1440 250 0
1380 250 0
1320 250 0
1260 250 0
1200 250 0
1140 250 0
1080 250 0
1020 250 0
960 250 0
900 250 0
840 250 0
780 250 0
720 250 0
660 250 0
600 250 0
540 250 0
480 250 0
420 250 0
360 250 0
300 250 0
240 250 0
180 250 0
120 250 0
60 250 0
1 4 0 3
409
410
411
0 187.5 0
0 125 0
0 62.5 0
1 6 0 31
412
413
414
415
416
417
418
419
420
421
422
423
424
425
426
427
428
429
430
431
432
433
434
435
436
437
438
439
440
441
442
8985.55418001659 2985.948579011319 0
8942.355841209692 2694.729033951617 0
8870.821007196628 2409.145968236615 0
8771.638597533862 2131.949702904733 0
8645.763793045066 1865.80978952201 0
8494.408836907638 1613.289300941196 0
8319.031360088213 1376.820147509067 0
8121.320343559646 1158.679656440361 0
7903.179852490941 960.9686399117927 0
7666.710699058813 785.5911630923683 0
7414.190210477999 634.2362069549381 0
7148.050297095277 508.3614024661424 0
6870.854031763395 409.1789928033759 0
6585.270966048393 337.6441587903105 0
6294.051420988691 294.4458199834103 0
6000.000000000009 280 0
5705.94857901133 294.445819983408 0
5414.729033951625 337.6441587903068 0
5129.145968236622 409.1789928033709 0
4851.949702904739 508.3614024661365 0
4585.809789522014 634.2362069549313 0
4333.289300941198 785.5911630923611 0
4096.820147509068 960.9686399117854 0
3878.679656440361 1158.679656440354 0
3680.968639911792 1376.82014750906 0
3505.591163092367 1613.289300941191 0
3354.236206954937 1865.809789522004 0
3228.361402466141 2131.949702904729 0
3129.178992803374 2409.145968236612 0
3057.644158790309 2694.729033951616 0
3014.445819983409 2985.948579011318 0
1 7 0 11
443
444
445
446
447
448
449
450
451
452
453
3300.536982532589 3280 0
3690.859065313371 3280 0
4230.266659977314 3280 0
4820.177773318209 3280 0
5410.088886659104 3280 0
5999.999999999999 3280 0
6589.911113340894 3280 0
7179.822226681789 3280 0
7769.733340022684 3280 0
8309.140934686628 3280 0
8699.463017467411 3280 0
2 1 0 597
454
455
456
457
458
459
460
461
462
463
464
465
466
467
468
469
470
471
472
473
474
475
476
477
478
479
480
481
482
483
484
485
486
487
488
489
490
491
492
493
494
495
496
497
498
499
500
501
502
503
504
505
506
507
508
509
510
511
512
513
514
515
516
517
518
519
520
521
522
523
524
525
526
527
528
529
530
531
532
533
534
535
536
537
538
539
540
541
542
543
544
545
546
547
548
549
550
551
552
553
554
555
556
557
558
559
560
561
562
563
564
565
566
567
568
569
570
571
572
573
574
575
576
577
578
579
580
581
582
583
584
585
586
587
588
589
590
591
592
593
594
595
596
597
598
599
600
601
602
603
604
605
606
607
608
609
610
611
612
613
614
615
616
617
618
619
620
621
622
623
624
625
626
627
628
629
630
631
632
633
634
635
636
637
638
639
640
641
642
643
644
645
646
647
648
649
650
651
652
653
654
655
656
657
658
659
660
661
662
663
664
665
666
667
668
669
670
671
672
673
674
675
676
677
678
679
680
681
682
683
684
685
686
687
688
689
690
691
692
693
694
695
696
697
698
699
700
701
702
703
704
705
706
707
708
709
710
711
712
713
714
715
716
717
718
719
720
721
722
723
724
725
726
727
728
729
730
731
732
733
734
735
736
737
738
739
740
741
742
743
744
745
746
747
748
749
750
751
752
753
754
755
756
757
758
759
760
761
762
763
764
765
766
767
768
769
770
771
772
773
774
775
776
777
778
779
780
781
782
783
784
785
786
787
788
789
790
791
792
793
794
795
796
797
798
799
800
801
802
803
804
805
806
807
808
809
810
811
812
813
814
815
816
817
818
819
820
821
822
823
824
825
826
827
828
829
830
831
832
833
834
835
836
837
838
839
840
841
842
843
844
845
846
847
848
849
850
851
852
853
854
855
856
857
858
859
860
861
862
863
864
865
866
867
868
869
870
871
872
873
874
875
876
877
878
879
880
881
882
883
884
885
886
887
888
889
890
891
892
893
894
895
896
897
898
899
900
901
902
903
904
905
906
907
908
909
910
911
912
913
914
915
916
917
918
919
920
921
922
923
924
925
926
927
928
929
930
931
932
933
934
935
936
937
938
939
940
941
942
943
944
945
946
947
948
949
950
951
952
953
954
955
956
957
958
959
960
961
962
963
964
965
966
967
968
969
970
971
972
973
974
975
976
977
978
979
980
981
982
983
984
985
986
987
988
989
990
991
992
993
994
995
996
997
998
999
1000
1001
1002
1003
1004
1005
1006
1007
1008
1009
1010
1011
1012
1013
1014
1015
1016
1017
1018
1019
1020
1021
1022
1023
1024
1025
1026
1027
1028
1029
1030
1031
1032
1033
1034
1035
1036
1037
1038
1039
1040
1041
1042
1043
1044
1045
1046
1047
1048
1049
1050
60 62.5 0
60 125 0
60 187.5 0
120 62.49999999999999 0
120 125 0
120 187.5 0
180 62.5 0
180 125 0
180 187.5 0
240 62.5 0
240 125 0
240 187.5 0
300 62.5 0
300 125 0
300 187.5 0
360 62.5 0
360 125 0
360 187.5 0
420 62.5 0
420 125 0
420 187.5 0
480 62.5 0
480 125 0
480 187.5 0
540 62.49999999999999 0
540 125 0
540 187.5 0
599.9999999999991 62.49999999999999 0
600 125 0
599.9999999999991 187.5 0
660 62.5 0
660 125 0
660 187.5 0
720 62.5 0
720 125 0
720 187.5 0
780 62.5 0
780 125 0
780 187.5 0
840 62.5 0
840 125 0
840 187.5 0
900.0000000000009 62.50000000000001 0
900 125 0
900.0000000000009 187.5 0
960 62.50000000000001 0
960 125 0
960 187.5 0
1020 62.5 0
1020 125 0
1020 187.5 0
1080 62.5 0
1080 125 0
1080 187.5 0
1140 62.5 0
1140 125 0
1140 187.5 0
1200 62.5 0
1200 125 0
1200 187.5 0
1260 62.5 0
1260 125 0
1260 187.5 0
1320 62.5 0
1320 125 0
1320 187.5 0
1380 62.50000000000001 0
1380 125 0
1380 187.5 0
1440 62.5 0
1440 125 0
1440 187.5 0
1500 62.5 0
1500 125 0
1500 187.5 0
1560 62.5 0
1560 125 0
1560 187.5 0
1620 62.49999999999999 0
1620 125 0
1620 187.5 0
1680 62.5 0
1680 125 0
1680 187.5 0
1740 62.5 0
1740 125 0
1740 187.5 0
1800 62.5 0
1800 125 0
1800 187.5 0
1860 62.5 0
1860 125 0
1860 187.5 0
1920 62.5 0
1920 125 0
1920 187.5 0
1980 62.5 0
1980 125 0
1980 187.5 0
2040 62.49999999999999 0
2040 125 0
2040 187.5 0
2100 62.49999999999999 0
2100 125 0
2100 187.5 0
2160 62.5 0
2160 125 0
2160 187.5 0
2220 62.5 0
2220 125 0
2220 187.5 0
2280 62.5 0
2280 125 0
2280 187.5 0
2340 62.5 0
2340 125 0
2340 187.5 0
2400 62.50000000000001 0
2400 125 0
2400 187.5 0
2460 62.50000000000001 0
2460 125 0
2460 187.5 0
2520 62.5 0
2520 125 0
2520 187.5 0
2580 62.5 0
2580 125 0
2580 187.5 0
2640 62.5 0
2640 125 0
2640 187.5 0
2700 62.5 0
2700 125 0
2700 187.5 0
2760 62.5 0
2760 125 0
2760 187.5 0
2820 62.5 0
2820 125 0
2820 187.5 0
2880 62.50000000000001 0
2880 125 0
2880 187.5 0
2940 62.5 0
2940 125 0
2940 187.5 0
3000 62.5 0
3000 125 0
3000 187.5 0
3060 62.5 0
3060 125 0
3060 187.5 0
3120 62.49999999999999 0
3120 125 0
3120 187.5 0
3180 62.5 0
3180 125 0
3180 187.5 0
3240 62.5 0
3240 125 0
3240 187.5 0
3300 62.5 0
3300 125 0
3300 187.5 0
3360 62.5 0
3360 125 0
3360 187.5 0
3420.000000000001 62.50000000000001 0
3420 125 0
3420 187.5 0
3480 62.5 0
3480 125 0
3480 187.5 0
3540 62.5 0
3540 125 0
3540 187.5 0
3600 62.49999999999999 0
3600 125 0
3600 187.5 0
3660 62.5 0
3660 125 0
3660 187.5 0
3720 62.5 0
3720 125 0
3720 187.5 0
3780 62.5 0
3780 125 0
3780 187.5 0
3840 62.5 0
3839.999999999999 125 0
3839.999999999999 187.5 0
3900 62.50000000000001 0
3899.999999999999 125 0
3899.999999999999 187.5 0
3960 62.5 0
3959.999999999999 125 0
3959.999999999999 187.5 0
4020.000000000001 62.5 0
4020 125 0
4020 187.5 0
4080 62.5 0
4080 125 0
4080 187.5 0
4140 62.5 0
4140 125 0
4140 187.5 0
4200.000000000001 62.5 0
4200 125 0
4200.000000000001 187.5 0
4260 62.5 0
4260 125 0
4260 187.5 0
4320 62.5 0
4320 125 0
4320 187.5 0
4380 62.5 0
4380 125 0
4380 187.5 0
4440 62.5 0
4440 125 0
4440 187.5 0
4500 62.5 0
4500 125 0
4500 187.5 0
4560 62.5 0
4560 125 0
4560 187.5 0
4620 62.5 0
4620 125 0
4620 187.5 0
4680 62.5 0
4680 125 0
4680 187.5 0
4740 62.5 0
4740 125 0
4740 187.5 0
4799.999999999999 62.5 0
4800 125 0
4799.999999999999 187.5 0
4860 62.5 0
4860 125 0
4860 187.5 0
4920 62.5 0
4920 125 0
4920 187.5 0
4980 62.5 0
4980 125 0
4980 187.5 0
5040 62.5 0
5040 125 0
5040.000000000001 187.5 0
5099.999999999999 62.5 0
5100 125 0
5099.999999999999 187.5 0
5160 62.5 0
5160 125 0
5159.999999999999 187.5 0
5220 62.5 0
5220 125 0
5220 187.5 0
5280 62.5 0
5280 125 0
5279.999999999999 187.5 0
5339.999999999999 62.5 0
5340 125 0
5339.999999999998 187.5 0
5400 62.5 0
5400 125 0
5399.999999999999 187.5 0
5460 62.5 0
5460 125 0
5459.999999999999 187.5 0
5520 62.5 0
5520 125 0
5520 187.5 0
5580 62.5 0
5580 125 0
5580 187.5 0
5640 62.5 0
5640 125 0
5640 187.5 0
5700.000000000001 62.5 0
5700 125 0
5700.000000000001 187.5 0
5760 62.5 0
5760 125 0
5760 187.5 0
5820 62.5 0
5820 125 0
5820 187.5 0
5880 62.5 0
5880 125 0
5880 187.5 0
5940 62.5 0
5940 125 0
5940 187.5 0
6000 62.5 0
6000 125 0
6000 187.5 0
6060 62.5 0
6060 125 0
6060 187.5 0
6120 62.5 0
6120 125 0
6120 187.5 0
6180 62.5 0
6180 125 0
6180 187.5 0
6240 62.5 0
6240 125 0
6240 187.5 0
6299.999999999999 62.5 0
6300 125 0
6299.999999999999 187.5 0
6360 62.5 0
6360 125 0
6360 187.5 0
6420 62.5 0
6420 125 0
6420 187.5 0
6480 62.5 0
6480 125 0
6480 187.5 0
6540.000000000001 62.5 0
6540 125 0
6540 187.5 0
6600.000000000001 62.5 0
6600 125 0
6600.000000000001 187.5 0
6660.000000000002 62.5 0
6660 125 0
6660.000000000001 187.5 0
6720.000000000001 62.5 0
6720 125 0
6720 187.5 0
6780.000000000001 62.5 0
6780.000000000001 125 0
6780 187.5 0
6840 62.5 0
6840.000000000001 125 0
6839.999999999999 187.5 0
6900 62.5 0
6900.000000000001 125 0
6900 187.5 0
6959.999999999999 62.5 0
6960 125 0
6960 187.5 0
7020 62.5 0
7020 125 0
7020 187.5 0
7080 62.5 0
7080 125 0
7080 187.5 0
7140 62.5 0
7140 125 0
7140 187.5 0
7200.000000000001 62.5 0
7200 125 0
7200.000000000001 187.5 0
7260 62.5 0
7260 125 0
7260 187.5 0
7320 62.5 0
7320 125 0
7320 187.5 0
7380 62.5 0
7380 125 0
7380 187.5 0
7440 62.5 0
7440 125 0
7440 187.5 0
7500 62.5 0
7500 125 0
7500 187.5 0
7560 62.5 0
7560 125 0
7560 187.5 0
7620 62.5 0
7620 125 0
7620 187.5 0
7680 62.5 0
7680 125 0
7680 187.5 0
7740 62.5 0
7740 125 0
7740 187.5 0
7799.999999999999 62.5 0
7800 125 0
7799.999999999999 187.5 0
7860 62.5 0
7860 125 0
7860 187.5 0
7920 62.5 0
7920 125 0
7920 187.5 0
7980 62.5 0
7980 125 0
7979.999999999999 187.5 0
8040 62.5 0
8040 125 0
8040 187.5 0
8100.000000000001 62.50000000000001 0
8100.000000000001 125 0
8100 187.5 0
8160.000000000002 62.5 0
8160.000000000001 125 0
8160.000000000001 187.5 0
8220 62.5 0
8220 125 0
8220 187.5 0
8280 62.5 0
8280 125 0
8280 187.5 0
8340 62.5 0
8340 125 0
8340 187.5 0
8400 62.49999999999999 0
8400 125 0
8400 187.5 0
8460 62.49999999999999 0
8460 125 0
8460 187.5 0
8520 62.5 0
8520 125 0
8520 187.5 0
8580 62.5 0
8580 125 0
8580 187.5 0
8640 62.5 0
8640 125 0
8640 187.5 0
8700 62.5 0
8700 125 0
8700 187.5 0
8760 62.5 0
8760 125 0
8760 187.5 0
8820 62.5 0
8820 125 0
8820 187.5 0
8880 62.49999999999999 0
8880 125 0
8880 187.5 0
8940 62.5 0
8940 125 0
8940 187.5 0
9000 62.5 0
9000 125 0
9000 187.5 0
9060 62.5 0
9060 125 0
9060 187.5 0
9120 62.50000000000001 0
9120 125 0
9120 187.5 0
9180 62.5 0
9180 125 0
9180 187.5 0
9240 62.5 0
9240 125 0
9240 187.5 0
9300 62.5 0
9300 125 0
9300 187.5 0
9360 62.5 0
9360 125 0
9360 187.5 0
9420 62.5 0
9420 125 0
9420 187.5 0
9480 62.5 0
9480 125 0
9480 187.5 0
9540 62.50000000000001 0
9540 125 0
9540 187.5 0
9600 62.50000000000001 0
9600 125 0
9600 187.5 0
9660 62.5 0
9660 125 0
9660 187.5 0
9720 62.5 0
9720 125 0
9720 187.5 0
9780 62.5 0
9780 125 0
9780 187.5 0
9840 62.5 0
9840 125 0
9840 187.5 0
9900 62.49999999999999 0
9900 125 0
9900 187.5 0
9960 62.49999999999999 0
9960 125 0
9960 187.5 0
10020 62.5 0
10020 125 0
10020 187.5 0
10080 62.5 0
10080 125 0
10080 187.5 0
10140 62.5 0
10140 125 0
10140 187.5 0
10200 62.5 0
10200 125 0
10200 187.5 0
10260 62.5 0
10260 125 0
10260 187.5 0
10320 62.5 0
10320 125 0
10320 187.5 0
10380 62.49999999999999 0
10380 125 0
10380 187.5 0
10440 62.5 0
10440 125 0
10440 187.5 0
10500 62.5 0
10500 125 0
10500 187.5 0
10560 62.5 0
10560 125 0
10560 187.5 0
10620 62.50000000000001 0
10620 125 0
10620 187.5 0
10680 62.5 0
10680 125 0
10680 187.5 0
10740 62.5 0
10740 125 0
10740 187.5 0
10800 62.5 0
10800 125 0
10800 187.5 0
10860 62.5 0
10860 125 0
10860 187.5 0
10920 62.5 0
10920 125 0
10920 187.5 0
10980 62.5 0
10980 125 0
10980 187.5 0
11040 62.50000000000001 0
11040 125 0
11040 187.5 0
11100 62.50000000000001 0
11100 125 0
11100 187.5 0
11160 62.5 0
11160 125 0
11160 187.5 0
11220 62.5 0
11220 125 0
11220 187.5 0
11280 62.5 0
11280 125 0
11280 187.5 0
11340 62.5 0
11340 125 0
11340 187.5 0
11400 62.49999999999999 0
11400 125 0
11400 187.5 0
11460 62.49999999999999 0
11460 125 0
11460 187.5 0
11520 62.5 0
11520 125 0
11520 187.5 0
11580 62.5 0
11580 125 0
11580 187.5 0
11640 62.5 0
11640 125 0
11640 187.5 0
11700 62.5 0
11700 125 0
11700 187.5 0
11760 62.5 0
11760 125 0
11760 187.5 0
11820 62.5 0
11820 125 0
11820 187.5 0
11880 62.49999999999999 0
11880 125 0
11880 187.5 0
11940 62.5 0
11940 125 0
11940 187.5 0
2 2 0 46
1051
1052
1053
1054
1055
1056
1057
1058
1059
1060
1061
1062
1063
1064
1065
1066
1067
1068
1069
1070
1071
1072
1073
1074
1075
1076
1077
1078
1079
1080
1081
1082
1083
1084
1085
1086
1087
1088
1089
1090
1091
1092
1093
1094
1095
1096
5865.484736589798 541.8789105868125 0
7172.109475402942 801.7827306609681 0
4585.965629845353 1055.180594180861 0
7939.566218900763 1421.278037574126 0
3871.428156564914 1619.126248182644 0
8554.776679145745 2226.409114421926 0
3435.456554126997 2481.314522647269 0
6285.950625827731 2716.751506306617 0
5175.610958753137 2686.867522129158 0
8622.444099465103 2559.900369558597 0
7503.885555190154 2817.845286238381 0
5421.309942243763 651.1752786995844 0
5661.292012910346 1022.815338165574 0
6302.519186766649 777.8483835102202 0
6256.057704769029 1383.260915213827 0
4230.611977450586 1430.648756241707 0
7648.157002023405 1150.176428835807 0
7572.457162601012 1715.755568559919 0
5710.016170175008 1661.671079709805 0
4213.968109199487 2034.016521329452 0
3490.355861577935 2903.358165445833 0
4703.992898683906 1705.35988462873 0
6259.491023094201 2010.739441192232 0
5748.321751892749 2299.272182273248 0
6772.439109144427 2238.618613504349 0
8039.437137354656 2877.415240340277 0
6750.177318761344 1662.635603156109 0
7801.780329894957 2340.4028200513 0
3892.406127220529 2545.349065390189 0
5137.415240162829 1354.486991533835 0
4438.257346803484 2732.205861659407 0
5232.037006770674 2014.572828755347 0
6722.022065164698 700.867273442067 0
4763.566246475557 2268.030751196466 0
5714.712811338221 2843.006246824379 0
8548.337171985215 2880.908814934674 0
6924.930990445303 2795.212970251215 0
7313.73168152833 2293.740083905954 0
3643.063959946482 2041.550735845354 0
8141.205448999161 1849.292259582363 0
6742.314693226038 1100.966625233515 0
5029.59238030349 854.4843902784196 0
3951.895826597617 2961.947065955215 0
8239.964993696431 2488.368481680904 0
7127.707112478922 1898.059997942763 0
7168.820460748943 1388.22949239818 0
$EndNodes
$Elements
15 1393 1 1393
0 1 15 1
1 1 
0 2 15 1
2 2 
0 3 15 1
3 3 
0 4 15 1
4 4 
0 5 15 1
5 5 
0 6 15 1
6 6 
0 7 15 1
7 7 
1 1 1 200
8 1 8 
9 8 9 
10 9 10 
11 10 11 
12 11 12 
13 12 13 
14 13 14 
15 14 15 
16 15 16 
17 16 17 
18 17 18 
19 18 19 
20 19 20 
21 20 21 
22 21 22 
23 22 23 
24 23 24 
25 24 25 
26 25 26 
27 26 27 
28 27 28 
29 28 29 
30 29 30 
31 30 31 
32 31 32 
33 32 33 
34 33 34 
35 34 35 
36 35 36 
37 36 37 
38 37 38 
39 38 39 
40 39 40 
41 40 41 
42 41 42 
43 42 43 
44 43 44 
45 44 45 
46 45 46 
47 46 47 
48 47 48 
49 48 49 
50 49 50 
51 50 51 
52 51 52 
53 52 53 
54 53 54 
55 54 55 
56 55 56 
57 56 57 
58 57 58 
59 58 59 
60 59 60 
61 60 61 
62 61 62 
63 62 63 
64 63 64 
65 64 65 
66 65 66 
67 66 67 
68 67 68 
69 68 69 
70 69 70 
71 70 71 
72 71 72 
73 72 73 
74 73 74 
75 74 75 
76 75 76 
77 76 77 
78 77 78 
79 78 79 
80 79 80 
81 80 81 
82 81 82 
83 82 83 
84 83 84 
85 84 85 
86 85 86 
87 86 87 
88 87 88 
89 88 89 
90 89 90 
91 90 91 
92 91 92 
93 92 93 
94 93 94 
95 94 95 
96 95 96 
97 96 97 
98 97 98 
99 98 99 
100 99 100 
101 100 101 
102 101 102 
103 102 103 
104 103 104 
105 104 105 
106 105 106 
107 106 107 
108 107 108 
109 108 109 
110 109 110 
111 110 111 
112 111 112 
113 112 113 
114 113 114 
115 114 115 
116 115 116 
117 116 117 
118 117 118 
119 118 119 
120 119 120 
121 120 121 
122 121 122 
123 122 123 
124 123 124 
125 124 125 
126 125 126 
127 126 127 
128 127 128 
129 128 129 
130 129 130 
131 130 131 
132 131 132 
133 132 133 
134 133 134 
135 134 135 
136 135 136 
137 136 137 
138 137 138 
139 138 139 
140 139 140 
141 140 141 
142 141 142 
143 142 143 
144 143 144 
145 144 145 
146 145 146 
147 146 147 
148 147 148 
149 148 149 
150 149 150 
151 150 151 
152 151 152 
153 152 153 
154 153 154 
155 154 155 
156 155 156 
157 156 157 
158 157 158 
159 158 159 
160 159 160 
161 160 161 
162 161 162 
163 162 163 
164 163 164 
165 164 165 
166 165 166 
167 166 167 
168 167 168 
169 168 169 
170 169 170 
171 170 171 
172 171 172 
173 172 173 
174 173 174 
175 174 175 
176 175 176 
177 176 177 
178 177 178 
179 178 179 
180 179 180 
181 180 181 
182 181 182 
183 182 183 
184 183 184 
185 184 185 
186 185 186 
187 186 187 
188 187 188 
189 188 189 
190 189 190 
191 190 191 
192 191 192 
193 192 193 
194 193 194 
195 194 195 
196 195 196 
197 196 197 
198 197 198 
199 198 199 
200 199 200 
201 200 201 
202 201 202 
203 202 203 
204 203 204 
205 204 205 
206 205 206 
207 206 2 
1 2 1 4
208 2 207 
209 207 208 
210 208 209 
211 209 3 
1 3 1 200
212 3 210 
213 210 211 
214 211 212 
215 212 213 
216 213 214 
217 214 215 
218 215 216 
219 216 217 
220 217 218 
221 218 219 
222 219 220 
223 220 221 
224 221 222 
225 222 223 
226 223 224 
227 224 225 
228 225 226 
229 226 227 
230 227 228 
231 228 229 
232 229 230 
233 230 231 
234 231 232 
235 232 233 
236 233 234 
237 234 235 
238 235 236 
239 236 237 
240 237 238 
241 238 239 
242 239 240 
243 240 241 
244 241 242 
245 242 243 
246 243 244 
247 244 245 
248 245 246 
249 246 247 
250 247 248 
251 248 249 
252 249 250 
253 250 251 
254 251 252 
255 252 253 
256 253 254 
257 254 255 
258 255 256 
259 256 257 
260 257 258 
261 258 259 
262 259 260 
263 260 261 
264 261 262 
265 262 263 
266 263 264 
267 264 265 
268 265 266 
269 266 267 
270 267 268 
271 268 269 
272 269 270 
273 270 271 
274 271 272 
275 272 273 
276 273 274 
277 274 275 
278 275 276 
279 276 277 
280 277 278 
281 278 279 
282 279 280 
283 280 281 
284 281 282 
285 282 283 
286 283 284 
287 284 285 
288 285 286 
289 286 287 
290 287 288 
291 288 289 
292 289 290 
293 290 291 
294 291 292 
295 292 293 
296 293 294 
297 294 295 
298 295 296 
299 296 297 
300 297 298 
301 298 299 
302 299 300 
303 300 301 
304 301 302 
305 302 303 
306 303 304 
307 304 305 
308 305 306 
309 306 307 
310 307 308 
311 308 309 
312 309 310 
313 310 311 
314 311 312 
315 312 313 
316 313 314 
317 314 315 
318 315 316 
319 316 317 
320 317 318 
321 318 319 
322 319 320 
323 320 321 
324 321 322 
325 322 323 
326 323 324 
327 324 325 
328 325 326 
329 326 327 
330 327 328 
331 328 329 
332 329 330 
333 330 331 
334 331 332 
335 332 333 
336 333 334 
337 334 335 
338 335 336 
339 336 337 
340 337 338 
341 338 339 
342 339 340 
343 340 341 
344 341 342 
345 342 343 
346 343 344 
347 344 345 
348 345 346 
349 346 347 
350 347 348 
351 348 349 
352 349 350 
353 350 351 
354 351 352 
355 352 353 
356 353 354 
357 354 355 
358 355 356 
359 356 357 
360 357 358 
361 358 359 
362 359 360 
363 360 361 
364 361 362 
365 362 363 
366 363 364 
367 364 365 
368 365 366 
369 366 367 
370 367 368 
371 368 369 
372 369 370 
373 370 371 
374 371 372 
375 372 373 
376 373 374 
377 374 375 
378 375 376 
379 376 377 
380 377 378 
381 378 379 
382 379 380 
383 380 381 
384 381 382 
385 382 383 
386 383 384 
387 384 385 
388 385 386 
389 386 387 
390 387 388 
391 388 389 
392 389 390 
393 390 391 
394 391 392 
395 392 393 
396 393 394 
397 394 395 
398 395 396 
399 396 397 
400 397 398 
401 398 399 
402 399 400 
403 400 401 
404 401 402 
405 402 403 
406 403 404 
407 404 405 
408 405 406 
409 406 407 
410 407 408 
411 408 4 
1 4 1 4
412 4 409 
413 409 410 
414 410 411 
415 411 1 
1 6 1 32
416 7 412 
417 412 413 
418 413 414 
419 414 415 
420 415 416 
421 416 417 
422 417 418 
423 418 419 
424 419 420 
425 420 421 
426 421 422 
427 422 423 
428 423 424 
429 424 425 
430 425 426 
431 426 427 
432 427 428 
433 428 429 
434 429 430 
435 430 431 
436 431 432 
437 432 433 
438 433 434 
439 434 435 
440 435 436 
441 436 437 
442 437 438 
443 438 439 
444 439 440 
445 440 441 
446 441 442 
447 442 5 
1 7 1 12
448 5 443 
449 443 444 
450 444 445 
451 445 446 
452 446 447 
453 447 448 
454 448 449 
455 449 450 
456 450 451 
457 451 452 
458 452 453 
459 453 7 
2 1 3 800
460 1 8 454 411 
461 411 454 455 410 
462 410 455 456 409 
463 409 456 408 4 
464 8 9 457 454 
465 454 457 458 455 
466 455 458 459 456 
467 456 459 407 408 
468 9 10 460 457 
469 457 460 461 458 
470 458 461 462 459 
471 459 462 406 407 
472 10 11 463 460 
473 460 463 464 461 
474 461 464 465 462 
475 462 465 405 406 
476 11 12 466 463 
477 463 466 467 464 
478 464 467 468 465 
479 465 468 404 405 
480 12 13 469 466 
481 466 469 470 467 
482 467 470 471 468 
483 468 471 403 404 
484 13 14 472 469 
485 469 472 473 470 
486 470 473 474 471 
487 471 474 402 403 
488 14 15 475 472 
489 472 475 476 473 
490 473 476 477 474 
491 474 477 401 402 
492 15 16 478 475 
493 475 478 479 476 
494 476 479 480 477 
495 477 480 400 401 
496 16 17 481 478 
497 478 481 482 479 
498 479 482 483 480 
499 480 483 399 400 
500 17 18 484 481 
501 481 484 485 482 
502 482 485 486 483 
503 483 486 398 399 
504 18 19 487 484 
505 484 487 488 485 
506 485 488 489 486 
507 486 489 397 398 
508 19 20 490 487 
509 487 490 491 488 
510 488 491 492 489 
511 489 492 396 397 
512 20 21 493 490 
513 490 493 494 491 
514 491 494 495 492 
515 492 495 395 396 
516 21 22 496 493 
517 493 496 497 494 
518 494 497 498 495 
519 495 498 394 395 
520 22 23 499 496 
521 496 499 500 497 
522 497 500 501 498 
523 498 501 393 394 
524 23 24 502 499 
525 499 502 503 500 
526 500 503 504 501 
527 501 504 392 393 
528 24 25 505 502 
529 502 505 506 503 
530 503 506 507 504 
531 504 507 391 392 
532 25 26 508 505 
533 505 508 509 506 
534 506 509 510 507 
535 507 510 390 391 
536 26 27 511 508 
537 508 511 512 509 
538 509 512 513 510 
539 510 513 389 390 
540 27 28 514 511 
541 511 514 515 512 
542 512 515 516 513 
543 513 516 388 389 
544 28 29 517 514 
545 514 517 518 515 
546 515 518 519 516 
547 516 519 387 388 
548 29 30 520 517 
549 517 520 521 518 
550 518 521 522 519 
551 519 522 386 387 
552 30 31 523 520 
553 520 523 524 521 
554 521 524 525 522 
555 522 525 385 386 
556 31 32 526 523 
557 523 526 527 524 
558 524 527 528 525 
559 525 528 384 385 
560 32 33 529 526 
561 526 529 530 527 
562 527 530 531 528 
563 528 531 383 384 
564 33 34 532 529 
565 529 532 533 530 
566 530 533 534 531 
567 531 534 382 383 
568 34 35 535 532 
569 532 535 536 533 
570 533 536 537 534 
571 534 537 381 382 
572 35 36 538 535 
573 535 538 539 536 
574 536 539 540 537 
575 537 540 380 381 
576 36 37 541 538 
577 538 541 542 539 
578 539 542 543 540 
579 540 543 379 380 
580 37 38 544 541 
581 541 544 545 542 
582 542 545 546 543 
583 543 546 378 379 
584 38 39 547 544 
585 544 547 548 545 
586 545 548 549 546 
587 546 549 377 378 
588 39 40 550 547 
589 547 550 551 548 
590 548 551 552 549 
591 549 552 376 377 
592 40 41 553 550 
593 550 553 554 551 
594 551 554 555 552 
595 552 555 375 376 
596 41 42 556 553 
597 553 556 557 554 
598 554 557 558 555 
599 555 558 374 375 
600 42 43 559 556 
601 556 559 560 557 
602 557 560 561 558 
603 558 561 373 374 
604 43 44 562 559 
605 559 562 563 560 
606 560 563 564 561 
607 561 564 372 373 
608 44 45 565 562 
609 562 565 566 563 
610 563 566 567 564 
611 564 567 371 372 
612 45 46 568 565 
613 565 568 569 566 
614 566 569 570 567 
615 567 570 370 371 
616 46 47 571 568 
617 568 571 572 569 
618 569 572 573 570 
619 570 573 369 370 
620 47 48 574 571 
621 571 574 575 572 
622 572 575 576 573 
623 573 576 368 369 
624 48 49 577 574 
625 574 577 578 575 
626 575 578 579 576 
627 576 579 367 368 
628 49 50 580 577 
629 577 580 581 578 
630 578 581 582 579 
631 579 582 366 367 
632 50 51 583 580 
633 580 583 584 581 
634 581 584 585 582 
635 582 585 365 366 
636 51 52 586 583 
637 583 586 587 584 
638 584 587 588 585 
639 585 588 364 365 
640 52 53 589 586 
641 586 589 590 587 
642 587 590 591 588 
643 588 591 363 364 
644 53 54 592 589 
645 589 592 593 590 
646 590 593 594 591 
647 591 594 362 363 
648 54 55 595 592 
649 592 595 596 593 
650 593 596 597 594 
651 594 597 361 362 
652 55 56 598 595 
653 595 598 599 596 
654 596 599 600 597 
655 597 600 360 361 
656 56 57 601 598 
657 598 601 602 599 
658 599 602 603 600 
659 600 603 359 360 
660 57 58 604 601 
661 601 604 605 602 
662 602 605 606 603 
663 603 606 358 359 
664 58 59 607 604 
665 604 607 608 605 
666 605 608 609 606 
667 606 609 357 358 
668 59 60 610 607 
669 607 610 611 608 
670 608 611 612 609 
671 609 612 356 357 
672 60 61 613 610 
673 610 613 614 611 
674 611 614 615 612 
675 612 615 355 356 
676 61 62 616 613 
677 613 616 617 614 
678 614 617 618 615 
679 615 618 354 355 
680 62 63 619 616 
681 616 619 620 617 
682 617 620 621 618 
683 618 621 353 354 
684 63 64 622 619 
685 619 622 623 620 
686 620 623 624 621 
687 621 624 352 353 
688 64 65 625 622 
689 622 625 626 623 
690 623 626 627 624 
691 624 627 351 352 
692 65 66 628 625 
693 625 628 629 626 
694 626 629 630 627 
695 627 630 350 351 
696 66 67 631 628 
697 628 631 632 629 
698 629 632 633 630 
699 630 633 349 350 
700 67 68 634 631 
701 631 634 635 632 
702 632 635 636 633 
703 633 636 348 349 
704 68 69 637 634 
705 634 637 638 635 
706 635 638 639 636 
707 636 639 347 348 
708 69 70 640 637 
709 637 640 641 638 
710 638 641 642 639 
711 639 642 346 347 
712 70 71 643 640 
713 640 643 644 641 
714 641 644 645 642 
715 642 645 345 346 
716 71 72 646 643 
717 643 646 647 644 
718 644 647 648 645 
719 645 648 344 345 
720 72 73 649 646 
721 646 649 650 647 
722 647 650 651 648 
723 648 651 343 344 
724 73 74 652 649 
725 649 652 653 650 
726 650 653 654 651 
727 651 654 342 343 
728 74 75 655 652 
729 652 655 656 653 
730 653 656 657 654 
731 654 657 341 342 
732 75 76 658 655 
733 655 658 659 656 
734 656 659 660 657 
735 657 660 340 341 
736 76 77 661 658 
737 658 661 662 659 
738 659 662 663 660 
739 660 663 339 340 
740 77 78 664 661 
741 661 664 665 662 
742 662 665 666 663 
743 663 666 338 339 
744 78 79 667 664 
745 664 667 668 665 
746 665 668 669 666 
747 666 669 337 338 
748 79 80 670 667 
749 667 670 671 668 
750 668 671 672 669 
751 669 672 336 337 
752 80 81 673 670 
753 670 673 674 671 
754 671 674 675 672 
755 672 675 335 336 
756 81 82 676 673 
757 673 676 677 674 
758 674 677 678 675 
759 675 678 334 335 
760 82 83 679 676 
761 676 679 680 677 
762 677 680 681 678 
763 678 681 333 334 
764 83 84 682 679 
765 679 682 683 680 
766 680 683 684 681 
767 681 684 332 333 
768 84 85 685 682 
769 682 685 686 683 
770 683 686 687 684 
771 684 687 331 332 
772 85 86 688 685 
773 685 688 689 686 
774 686 689 690 687 
775 687 690 330 331 
776 86 87 691 688 
777 688 691 692 689 
778 689 692 693 690 
779 690 693 329 330 
780 87 88 694 691 
781 691 694 695 692 
782 692 695 696 693 
783 693 696 328 329 
784 88 89 697 694 
785 694 697 698 695 
786 695 698 699 696 
787 696 699 327 328 
788 89 90 700 697 
789 697 700 701 698 
790 698 701 702 699 
791 699 702 326 327 
792 90 91 703 700 
793 700 703 704 701 
794 701 704 705 702 
795 702 705 325 326 
796 91 92 706 703 
797 703 706 707 704 
798 704 707 708 705 
799 705 708 324 325 
800 92 93 709 706 
801 706 709 710 707 
802 707 710 711 708 
803 708 711 323 324 
804 93 94 712 709 
805 709 712 713 710 
806 710 713 714 711 
807 711 714 322 323 
808 94 95 715 712 
809 712 715 716 713 
810 713 716 717 714 
811 714 717 321 322 
812 95 96 718 715 
813 715 718 719 716 
814 716 719 720 717 
815 717 720 320 321 
816 96 97 721 718 
817 718 721 722 719 
818 719 722 723 720 
819 720 723 319 320 
820 97 98 724 721 
821 721 724 725 722 
822 722 725 726 723 
823 723 726 318 319 
824 98 99 727 724 
825 724 727 728 725 
826 725 728 729 726 
827 726 729 317 318 
828 99 100 730 727 
829 727 730 731 728 
830 728 731 732 729 
831 729 732 316 317 
832 100 101 733 730 
833 730 733 734 731 
834 731 734 735 732 
835 732 735 315 316 
836 101 102 736 733 
837 733 736 737 734 
838 734 737 738 735 
839 735 738 314 315 
840 102 103 739 736 
841 736 739 740 737 
842 737 740 741 738 
843 738 741 313 314 
844 103 104 742 739 
845 739 742 743 740 
846 740 743 744 741 
847 741 744 312 313 
848 104 105 745 742 
849 742 745 746 743 
850 743 746 747 744 
851 744 747 311 312 
852 105 106 748 745 
853 745 748 749 746 
854 746 749 750 747 
855 747 750 310 311 
856 106 107 751 748 
857 748 751 752 749 
858 749 752 753 750 
859 750 753 309 310 
860 107 108 754 751 
861 751 754 755 752 
862 752 755 756 753 
863 753 756 308 309 
864 108 109 757 754 
865 754 757 758 755 
866 755 758 759 756 
867 756 759 307 308 
868 109 110 760 757 
869 757 760 761 758 
870 758 761 762 759 
871 759 762 306 307 
872 110 111 763 760 
873 760 763 764 761 
874 761 764 765 762 
875 762 765 305 306 
876 111 112 766 763 
877 763 766 767 764 
878 764 767 768 765 
879 765 768 304 305 
880 112 113 769 766 
881 766 769 770 767 
882 767 770 771 768 
883 768 771 303 304 
884 113 114 772 769 
885 769 772 773 770 
886 770 773 774 771 
887 771 774 302 303 
888 114 115 775 772 
889 772 775 776 773 
890 773 776 777 774 
891 774 777 301 302 
892 115 116 778 775 
893 775 778 779 776 
894 776 779 780 777 
895 777 780 300 301 
896 116 117 781 778 
897 778 781 782 779 
898 779 782 783 780 
899 780 783 299 300 
900 117 118 784 781 
901 781 784 785 782 
902 782 785 786 783 
903 783 786 298 299 
904 118 119 787 784 
905 784 787 788 785 
906 785 788 789 786 
907 786 789 297 298 
908 119 120 790 787 
909 787 790 791 788 
910 788 791 792 789 
911 789 792 296 297 
912 120 121 793 790 
913 790 793 794 791 
914 791 794 795 792 
915 792 795 295 296 
916 121 122 796 793 
917 793 796 797 794 
918 794 797 798 795 
919 795 798 294 295 
920 122 123 799 796 
921 796 799 800 797 
922 797 800 801 798 
923 798 801 293 294 
924 123 124 802 799 
925 799 802 803 800 
926 800 803 804 801 
927 801 804 292 293 
928 124 125 805 802 
929 802 805 806 803 
930 803 806 807 804 
931 804 807 291 292 
932 125 126 808 805 
933 805 808 809 806 
934 806 809 810 807 
935 807 810 290 291 
936 126 127 811 808 
937 808 811 812 809 
938 809 812 813 810 
939 810 813 289 290 
940 127 128 814 811 
941 811 814 815 812 
942 812 815 816 813 
943 813 816 288 289 
944 128 129 817 814 
945 814 817 818 815 
946 815 818 819 816 
947 816 819 287 288 
948 129 130 820 817 
949 817 820 821 818 
950 818 821 822 819 
951 819 822 286 287 
952 130 131 823 820 
953 820 823 824 821 
954 821 824 825 822 
955 822 825 285 286 
956 131 132 826 823 
957 823 826 827 824 
958 824 827 828 825 
959 825 828 284 285 
960 132 133 829 826 
961 826 829 830 827 
962 827 830 831 828 
963 828 831 283 284 
964 133 134 832 829 
965 829 832 833 830 
966 830 833 834 831 
967 831 834 282 283 
968 134 135 835 832 
969 832 835 836 833 
970 833 836 837 834 
971 834 837 281 282 
972 135 136 838 835 
973 835 838 839 836 
974 836 839 840 837 
975 837 840 280 281 
976 136 137 841 838 
977 838 841 842 839 
978 839 842 843 840 
979 840 843 279 280 
980 137 138 844 841 
981 841 844 845 842 
982 842 845 846 843 
983 843 846 278 279 
984 138 139 847 844 
985 844 847 848 845 
986 845 848 849 846 
987 846 849 277 278 
988 139 140 850 847 
989 847 850 851 848 
990 848 851 852 849 
991 849 852 276 277 
992 140 141 853 850 
993 850 853 854 851 
994 851 854 855 852 
995 852 855 275 276 
996 141 142 856 853 
997 853 856 857 854 
998 854 857 858 855 
999 855 858 274 275 
1000 142 143 859 856 
1001 856 859 860 857 
1002 857 860 861 858 
1003 858 861 273 274 
1004 143 144 862 859 
1005 859 862 863 860 
1006 860 863 864 861 
1007 861 864 272 273 
1008 144 145 865 862 
1009 862 865 866 863 
1010 863 866 867 864 
1011 864 867 271 272 
1012 145 146 868 865 
1013 865 868 869 866 
1014 866 869 870 867 
1015 867 870 270 271 
1016 146 147 871 868 
1017 868 871 872 869 
1018 869 872 873 870 
1019 870 873 269 270 
1020 147 148 874 871 
1021 871 874 875 872 
1022 872 875 876 873 
1023 873 876 268 269 
1024 148 149 877 874 
1025 874 877 878 875 
1026 875 878 879 876 
1027 876 879 267 268 
1028 149 150 880 877 
1029 877 880 881 878 
1030 878 881 882 879 
1031 879 882 266 267 
1032 150 151 883 880 
1033 880 883 884 881 
1034 881 884 885 882 
1035 882 885 265 266 
1036 151 152 886 883 
1037 883 886 887 884 
1038 884 887 888 885 
1039 885 888 264 265 
1040 152 153 889 886 
1041 886 889 890 887 
1042 887 890 891 888 
1043 888 891 263 264 
1044 153 154 892 889 
1045 889 892 893 890 
1046 890 893 894 891 
1047 891 894 262 263 
1048 154 155 895 892 
1049 892 895 896 893 
1050 893 896 897 894 
1051 894 897 261 262 
1052 155 156 898 895 
1053 895 898 899 896 
1054 896 899 900 897 
1055 897 900 260 261 
1056 156 157 901 898 
1057 898 901 902 899 
1058 899 902 903 900 
1059 900 903 259 260 
1060 157 158 904 901 
1061 901 904 905 902 
1062 902 905 906 903 
1063 903 906 258 259 
1064 158 159 907 904 
1065 904 907 908 905 
1066 905 908 909 906 
1067 906 909 257 258 
1068 159 160 910 907 
1069 907 910 911 908 
1070 908 911 912 909 
1071 909 912 256 257 
1072 160 161 913 910 
1073 910 913 914 911 
1074 911 914 915 912 
1075 912 915 255 256 
1076 161 162 916 913 
1077 913 916 917 914 
1078 914 917 918 915 
1079 915 918 254 255 
1080 162 163 919 916 
1081 916 919 920 917 
1082 917 920 921 918 
1083 918 921 253 254 
1084 163 164 922 919 
1085 919 922 923 920 
1086 920 923 924 921 
1087 921 924 252 253 
1088 164 165 925 922 
1089 922 925 926 923 
1090 923 926 927 924 
1091 924 927 251 252 
1092 165 166 928 925 
1093 925 928 929 926 
1094 926 929 930 927 
1095 927 930 250 251 
1096 166 167 931 928 
1097 928 931 932 929 
1098 929 932 933 930 
1099 930 933 249 250 
1100 167 168 934 931 
1101 931 934 935 932 
1102 932 935 936 933 
1103 933 936 248 249 
1104 168 169 937 934 
1105 934 937 938 935 
1106 935 938 939 936 
1107 936 939 247 248 
1108 169 170 940 937 
1109 937 940 941 938 
1110 938 941 942 939 
1111 939 942 246 247 
1112 170 171 943 940 
1113 940 943 944 941 
1114 941 944 945 942 
1115 942 945 245 246 
1116 171 172 946 943 
1117 943 946 947 944 
1118 944 947 948 945 
1119 945 948 244 245 
1120 172 173 949 946 
1121 946 949 950 947 
1122 947 950 951 948 
1123 948 951 243 244 
1124 173 174 952 949 
1125 949 952 953 950 
1126 950 953 954 951 
1127 951 954 242 243 
1128 174 175 955 952 
1129 952 955 956 953 
1130 953 956 957 954 
1131 954 957 241 242 
1132 175 176 958 955 
1133 955 958 959 956 
1134 956 959 960 957 
1135 957 960 240 241 
1136 176 177 961 958 
1137 958 961 962 959 
1138 959 962 963 960 
1139 960 963 239 240 
1140 177 178 964 961 
1141 961 964 965 962 
1142 962 965 966 963 
1143 963 966 238 239 
1144 178 179 967 964 
1145 964 967 968 965 
1146 965 968 969 966 
1147 966 969 237 238 
1148 179 180 970 967 
1149 967 970 971 968 
1150 968 971 972 969 
1151 969 972 236 237 
1152 180 181 973 970 
1153 970 973 974 971 
1154 971 974 975 972 
1155 972 975 235 236 
1156 181 182 976 973 
1157 973 976 977 974 
1158 974 977 978 975 
1159 975 978 234 235 
1160 182 183 979 976 
1161 976 979 980 977 
1162 977 980 981 978 
1163 978 981 233 234 
1164 183 184 982 979 
1165 979 982 983 980 
1166 980 983 984 981 
1167 981 984 232 233 
1168 184 185 985 982 
1169 982 985 986 983 
1170 983 986 987 984 
1171 984 987 231 232 
1172 185 186 988 985 
1173 985 988 989 986 
1174 986 989 990 987 
1175 987 990 230 231 
1176 186 187 991 988 
1177 988 991 992 989 
1178 989 992 993 990 
1179 990 993 229 230 
1180 187 188 994 991 
1181 991 994 995 992 
1182 992 995 996 993 
1183 993 996 228 229 
1184 188 189 997 994 
1185 994 997 998 995 
1186 995 998 999 996 
1187 996 999 227 228 
1188 189 190 1000 997 
1189 997 1000 1001 998 
1190 998 1001 1002 999 
1191 999 1002 226 227 
1192 190 191 1003 1000 
1193 1000 1003 1004 1001 
1194 1001 1004 1005 1002 
1195 1002 1005 225 226 
1196 191 192 1006 1003 
1197 1003 1006 1007 1004 
1198 1004 1007 1008 1005 
1199 1005 1008 224 225 
1200 192 193 1009 1006 
1201 1006 1009 1010 1007 
1202 1007 1010 1011 1008 
1203 1008 1011 223 224 
1204 193 194 1012 1009 
1205 1009 1012 1013 1010 
1206 1010 1013 1014 1011 
1207 1011 1014 222 223 
1208 194 195 1015 1012 
1209 1012 1015 1016 1013 
1210 1013 1016 1017 1014 
1211 1014 1017 221 222 
1212 195 196 1018 1015 
1213 1015 1018 1019 1016 
1214 1016 1019 1020 1017 
1215 1017 1020 220 221 
1216 196 197 1021 1018 
1217 1018 1021 1022 1019 
1218 1019 1022 1023 1020 
1219 1020 1023 219 220 
1220 197 198 1024 1021 
1221 1021 1024 1025 1022 
1222 1022 1025 1026 1023 
1223 1023 1026 218 219 
1224 198 199 1027 1024 
1225 1024 1027 1028 1025 
1226 1025 1028 1029 1026 
1227 1026 1029 217 218 
1228 199 200 1030 1027 
1229 1027 1030 1031 1028 
1230 1028 1031 1032 1029 
1231 1029 1032 216 217 
1232 200 201 1033 1030 
1233 1030 1033 1034 1031 
1234 1031 1034 1035 1032 
1235 1032 1035 215 216 
1236 201 202 1036 1033 
1237 1033 1036 1037 1034 
1238 1034 1037 1038 1035 
1239 1035 1038 214 215 
1240 202 203 1039 1036 
1241 1036 1039 1040 1037 
1242 1037 1040 1041 1038 
1243 1038 1041 213 214 
1244 203 204 1042 1039 
1245 1039 1042 1043 1040 
1246 1040 1043 1044 1041 
1247 1041 1044 212 213 
1248 204 205 1045 1042 
1249 1042 1045 1046 1043 
1250 1043 1046 1047 1044 
1251 1044 1047 211 212 
1252 205 206 1048 1045 
1253 1045 1048 1049 1046 
1254 1046 1049 1050 1047 
1255 1047 1050 210 211 
1256 206 2 207 1048 
1257 1048 207 208 1049 
1258 1049 208 209 1050 
1259 1050 209 3 210 
2 2 2 134
1260 1066 1072 1053 
1261 1072 1080 1053 
1262 1074 1082 1059 
1263 442 5 443 
1264 7 412 453 
1265 1073 1074 1058 
1266 1080 1082 1069 
1267 1058 1075 1073 
1268 434 1053 433 
1269 441 1057 440 
1270 436 1055 435 
1271 427 1051 426 
1272 415 1056 414 
1273 422 1052 421 
1274 420 1067 419 
1275 424 1052 423 
1276 429 1051 428 
1277 1079 1081 1070 
1278 1081 1084 1070 
1279 442 1071 441 
1280 413 1086 412 
1281 434 1066 1053 
1282 1078 1090 1068 
1283 435 1066 434 
1284 426 1064 425 
1285 1059 1085 1074 
1286 441 1071 1057 
1287 1068 1088 1078 
1288 1072 1082 1080 
1289 1063 1080 1069 
1290 439 1089 438 
1291 438 1089 437 
1292 417 1090 416 
1293 418 1090 417 
1294 1082 1084 1059 
1295 1065 1091 1064 
1296 1075 1077 1073 
1297 432 1092 431 
1298 1063 1065 1064 
1299 443 1071 442 
1300 412 1086 453 
1301 1074 1085 1058 
1302 431 1092 430 
1303 1064 1091 1083 
1304 1061 1088 1087 
1305 1071 1079 1057 
1306 1087 1088 1075 
1307 1063 1069 1065 
1308 1069 1073 1065 
1309 1063 1064 1051 
1310 1063 1092 1080 
1311 451 1061 450 
1312 446 1081 445 
1313 1069 1074 1073 
1314 1073 1077 1065 
1315 1062 1092 1063 
1316 1068 1090 1054 
1317 1075 1095 1077 
1318 1058 1087 1075 
1319 447 1059 446 
1320 449 1058 448 
1321 452 1076 451 
1322 1068 1095 1088 
1323 1070 1084 1072 
1324 1059 1081 446 
1325 1077 1091 1065 
1326 1076 1078 1061 
1327 1070 1072 1066 
1328 1069 1082 1074 
1329 424 1083 1052 
1330 447 1085 1059 
1331 1058 1085 448 
1332 1095 1096 1077 
1333 449 1087 1058 
1334 1070 1089 1079 
1335 1059 1084 1081 
1336 1062 1063 1051 
1337 1067 1068 1054 
1338 1078 1094 1090 
1339 1051 1064 426 
1340 1055 1066 435 
1341 429 1062 1051 
1342 419 1067 1054 
1343 1052 1067 421 
1344 1056 1060 414 
1345 1061 1087 450 
1346 451 1076 1061 
1347 1090 1094 1056 
1348 448 1085 447 
1349 1081 1093 445 
1350 1072 1084 1082 
1351 1079 1089 1057 
1352 450 1087 449 
1353 445 1093 444 
1354 1060 1086 413 
1355 1078 1088 1061 
1356 1068 1096 1095 
1357 1079 1093 1081 
1358 1064 1083 425 
1359 1077 1096 1091 
1360 1055 1070 1066 
1361 425 1083 424 
1362 437 1089 1055 
1363 1057 1089 439 
1364 416 1090 1056 
1365 1054 1090 418 
1366 1071 1093 1079 
1367 1080 1092 1053 
1368 1053 1092 432 
1369 1076 1094 1078 
1370 444 1071 443 
1371 453 1086 452 
1372 1088 1095 1075 
1373 1083 1091 1052 
1374 1067 1096 1068 
1375 452 1086 1076 
1376 1055 1089 1070 
1377 1086 1094 1076 
1378 430 1092 1062 
1379 1052 1096 1067 
1380 1060 1094 1086 
1381 1056 1094 1060 
1382 1091 1096 1052 
1383 444 1093 1071 
1384 433 1053 432 
1385 414 1060 413 
1386 416 1056 415 
1387 437 1055 436 
1388 440 1057 439 
1389 430 1062 429 
1390 419 1054 418 
1391 421 1067 420 
1392 423 1052 422 
1393 428 1051 427 
$EndElements
